<?xml version="1.0" encoding="utf-8"?>
<!-- Generator: Adobe Illustrator 26.0.1, SVG Export Plug-In . SVG Version: 6.00 Build 0)  -->
<svg version="1.1" id="Layer_1" xmlns="http://www.w3.org/2000/svg" xmlns:xlink="http://www.w3.org/1999/xlink" x="0px" y="0px"
	 viewBox="0 0 1752.6 1209.5" style="enable-background:new 0 0 1752.6 1209.5;" xml:space="preserve">
<style type="text/css">
	.st0{opacity:0.28;}
	.st1{opacity:0.3;}
	.st2{fill:#3AA4DD;}
	.st3{fill-rule:evenodd;clip-rule:evenodd;fill:#3AA4DD;}
</style>
<g id="Layer_2_00000171680114410968072350000006545426672829602450_" class="st0">
	<g id="Layer_1-2">
		<g id="c" class="st1">
			<polygon class="st2" points="1376,1155.5 238.1,1121.8 238.2,1119.9 1376,1153.5 			"/>
			<polygon class="st2" points="1424,1156.9 1393.6,1156 1393.6,1154.1 1424.1,1155 			"/>
			<polygon class="st2" points="1751.4,1166.6 1705.5,1165.2 1705.6,1163.3 1751.4,1164.6 			"/>
			<polygon class="st2" points="1705.5,1131.3 1751.4,1130.2 1751.4,1132.2 1705.6,1133.2 			"/>
			<polygon class="st2" points="238.1,1165.3 823.1,1151.7 823.2,1153.7 238.2,1167.2 			"/>
			
				<rect x="1705.5" y="1139" transform="matrix(0.9998 -2.059343e-02 2.059343e-02 0.9998 -23.1099 35.8364)" class="st2" width="45.8" height="2"/>
			<polygon class="st2" points="1098,1152 1687.5,1139.8 1687.6,1141.8 1098.1,1153.9 			"/>
			
				<rect x="406" y="1161.9" transform="matrix(0.9998 -2.059343e-02 2.059343e-02 0.9998 -23.8178 12.9035)" class="st2" width="417.2" height="2"/>
			
				<rect x="238.2" y="1169.2" transform="matrix(0.9998 -2.059343e-02 2.059343e-02 0.9998 -24.0412 5.6792)" class="st2" width="51.1" height="2"/>
			<polygon class="st2" points="1705.6,1172.2 1751.4,1171.7 1751.4,1173.7 1705.6,1174.1 			"/>
			<polygon class="st2" points="1462.3,1174.7 1664.3,1172.6 1664.3,1174.6 1462.3,1176.6 			"/>
			
				<rect x="1393.6" y="1175.3" transform="matrix(0.9999 -1.029726e-02 1.029726e-02 0.9999 -12.0375 14.5691)" class="st2" width="30.4" height="2"/>
			<polygon class="st2" points="406.1,1185.5 1376,1175.6 1376,1177.5 406.1,1187.5 			"/>
			<polygon class="st2" points="174.4,1187.9 391.9,1185.7 392,1187.7 174.4,1189.9 			"/>
			<polygon class="st2" points="117.6,1188.5 159.3,1188.1 159.3,1190.1 117.6,1190.5 			"/>
			
				<rect x="137.5" y="1089.8" transform="matrix(3.193413e-02 -0.9995 0.9995 3.193413e-02 -976.1049 1213.5997)" class="st2" width="2" height="41.7"/>
			
				<rect x="497.8" y="797.7" transform="matrix(3.193413e-02 -0.9995 0.9995 3.193413e-02 -638.8475 1584.9102)" class="st2" width="2" height="649.1"/>
			
				<rect x="1236" y="1006.8" transform="matrix(3.193413e-02 -0.9995 0.9995 3.193413e-02 52.1918 2345.6221)" class="st2" width="2" height="278.1"/>
			
				<rect x="1562.5" y="1055.2" transform="matrix(3.193413e-02 -0.9995 0.9995 3.193413e-02 357.5969 2681.8208)" class="st2" width="1.6" height="202.2"/>
			
				<rect x="1727.5" y="1138.7" transform="matrix(3.193413e-02 -0.9995 0.9995 3.193413e-02 512.2375 2852.1099)" class="st2" width="2" height="45.9"/>
			<polygon class="st2" points="823.1,1063.8 174.3,1023.2 174.4,1021.2 823.2,1061.8 			"/>
			<polygon class="st2" points="1687.5,1117.8 1098,1081 1098.1,1079 1687.6,1115.8 			"/>
			<polygon class="st2" points="1751.3,1121.8 1705.5,1118.9 1705.6,1117 1751.4,1119.8 			"/>
			<polygon class="st2" points="1705.5,1123.1 1751.4,1121.9 1751.4,1123.9 1705.6,1125.1 			"/>
			<polygon class="st2" points="1098,1138.9 1687.5,1123.8 1687.6,1125.3 1098.1,1140.5 			"/>
			<polygon class="st2" points="406.1,1156.6 823.1,1145.8 823.2,1147.8 406.1,1158.5 			"/>
			<polygon class="st2" points="312.3,1159 391.9,1156.9 392,1158.9 312.3,1160.9 			"/>
			<polygon class="st2" points="1098,1185.2 1424.1,1182.7 1424.1,1184.3 1098,1186.8 			"/>
			<polygon class="st2" points="406.1,1190.4 823.1,1187.2 823.2,1189.1 406.1,1192.3 			"/>
			<polygon class="st2" points="312.3,1191.1 391.9,1190.5 391.9,1192.4 312.3,1193.1 			"/>
			<polygon class="st2" points="174.4,1192.2 289.2,1191.3 289.2,1193.2 174.4,1194.1 			"/>
			<polygon class="st2" points="342.4,1154.6 117.6,1150.4 117.6,1148.4 342.4,1152.6 			"/>
			<polygon class="st2" points="823.1,1163.7 406.1,1155.8 406.1,1153.8 823.2,1161.7 			"/>
			<polygon class="st2" points="1376,1173.9 1098,1168.7 1098,1167.1 1376,1172.3 			"/>
			
				<rect x="1407.9" y="1158.6" transform="matrix(1.884847e-02 -0.9998 0.9998 1.884847e-02 208.7549 2560.3677)" class="st2" width="2" height="30.4"/>
			<polygon class="st2" points="289.3,1157.5 117.6,1154.5 117.6,1152.5 289.3,1155.5 			"/>
			<polygon class="st2" points="823.1,1166.8 406.1,1159.5 406.1,1157.6 823.2,1164.9 			"/>
			<polygon class="st2" points="1376,1176.3 1098,1171.4 1098,1169.9 1376,1174.7 			"/>
			
				<rect x="1407.8" y="1160.9" transform="matrix(1.745241e-02 -0.9998 0.9998 1.745241e-02 208.3298 2564.1885)" class="st2" width="2" height="30.4"/>
			<polygon class="st2" points="1693.7,1182.1 1664.3,1181.5 1664.3,1179.6 1693.7,1180.1 			"/>
			<polygon class="st2" points="1705.5,1147.6 1751.4,1146.8 1751.4,1148.8 1705.6,1149.6 			"/>
			
				<rect x="1462.2" y="1150.5" transform="matrix(0.9998 -1.797592e-02 1.797592e-02 0.9998 -20.4422 28.2867)" class="st2" width="202.1" height="1.6"/>
			<polygon class="st2" points="1098,1158.8 1376,1153.8 1376,1155.3 1098,1160.3 			"/>
			<polygon class="st2" points="85,1176.8 823.1,1163.5 823.2,1165.5 85.1,1178.8 			"/>
			
				<rect x="240" y="1144.7" transform="matrix(7.853848e-03 -1 1 7.853848e-03 -953.7009 1424.5011)" class="st2" width="2" height="96.4"/>
			
				<rect x="566.7" y="940" transform="matrix(7.853848e-03 -1 1 7.853848e-03 -632.1357 1753.6816)" class="st2" width="2" height="510.9"/>
			<polygon class="st2" points="289.2,1182.5 117.6,1179.2 117.6,1177.2 289.2,1180.5 			"/>
			<polygon class="st2" points="1751.5,1080.8 805.1,993.1 805.3,991.2 1751.7,1078.8 			"/>
			<rect x="158.3" y="966.5" class="st2" width="2" height="239.3"/>
			<polygon class="st2" points="1751.9,393.5 1511,454.3 1511,1205.8 1509.1,1205.8 1509,453.6 1509,452.8 1509.8,452.6 
				1751.4,391.6 			"/>
			<polygon class="st2" points="1392.6,1205.8 1392.6,425.3 1022.8,257.2 1023.6,255.4 1394,423.8 1394.6,424 1394.6,424.7 
				1394.6,1205.8 			"/>
			<path class="st2" d="M1350.5,462.7v-94.2l1.4,0.7l194.7,92.5l0.6,0.3v84.5l-1.4-0.6l-194.7-82.2l-0.6-0.2V462.7z M1352.5,371.6
				v90.4l192.8,81.4v-80.3L1352.5,371.6L1352.5,371.6z"/>
			<rect x="855" y="146.3" class="st2" width="2" height="1059.6"/>
			<rect x="1148.7" y="284.2" class="st2" width="2" height="921.6"/>
			<rect x="1172.9" y="295.5" class="st2" width="2" height="910.3"/>
			<polygon class="st2" points="822.8,901.5 247.8,824.8 248,822.8 823.1,899.5 			"/>
			<polygon class="st2" points="823,923.2 169.6,842.2 169.8,840.2 823.3,921.2 			"/>
			
				<rect x="555.2" y="581.7" transform="matrix(0.1374 -0.9905 0.9905 0.1374 -363.3879 1285.1215)" class="st2" width="2" height="539"/>
			
				<rect x="600" y="603.5" transform="matrix(0.1488 -0.9889 0.9889 0.1488 -307.3785 1299.1788)" class="st2" width="2" height="449.3"/>
			<polygon class="st2" points="116.6,1006.8 116.6,898.1 116.6,897.3 117.4,897.1 823,760.1 823.4,762 118.6,898.9 118.6,1006.8 
							"/>
			<rect x="228" y="909.5" class="st2" width="2" height="104.6"/>
			<rect x="237.2" y="932.6" class="st2" width="2" height="273.2"/>
			<rect x="192" y="934.1" class="st2" width="1.6" height="271.8"/>
			
				<rect x="226.1" y="875.5" transform="matrix(0.9851 -0.1721 0.1721 0.9851 -144.5988 85.0506)" class="st2" width="384.1" height="2"/>
			<polygon class="st2" points="217.8,835.2 1546.2,543.9 1546.6,545.9 218.2,837.2 			"/>
			<polygon class="st2" points="1751.8,491.1 1723.9,497.3 1723.9,1205.8 1722.4,1205.8 1722.4,496.7 1722.4,496 1723,495.9 
				1751.5,489.6 			"/>
			<polygon class="st2" points="1751.7,984.1 174.7,1093.2 174.5,1091.2 1751.6,982.1 			"/>
			<polygon class="st2" points="736.5,1104.4 402.8,1090.1 401.9,1090 401.9,1089.1 402,746 402,745.2 402.7,745 530.2,713.7 
				530.7,715.6 403.9,746.8 403.9,1088.1 736.6,1102.5 			"/>
			<polygon class="st2" points="402.9,1088.1 822.5,1061.9 822.7,1063.9 403,1090.1 			"/>
			<polygon class="st2" points="1375,1205.8 1375,1121.6 1375,1120.6 1376,1120.6 1393.6,1120.6 1393.6,1122.6 1377,1122.6 
				1377,1205.8 			"/>
			<polygon class="st2" points="1423.1,1205.8 1423.1,1150.6 1423.1,1149.6 1424.1,1149.6 1462.3,1149.6 1463.3,1149.6 
				1463.3,1150.6 1463.3,1205.8 1461.3,1205.8 1461.3,1151.6 1425.1,1151.6 1425.1,1205.8 			"/>
			<polygon class="st2" points="1663.3,1205.8 1663.3,1147.7 1663.3,1146.7 1664.3,1146.7 1693.7,1146.7 1694.7,1146.7 
				1694.7,1147.7 1694.7,1205.8 1692.7,1205.8 1692.7,1148.7 1665.3,1148.7 1665.3,1205.8 			"/>
			<polygon class="st2" points="1686.6,1147.7 1686.6,1110.9 1686.6,1109.9 1687.6,1109.9 1705.6,1109.9 1706.6,1109.9 
				1706.6,1110.9 1706.6,1205.8 1704.6,1205.8 1704.6,1111.8 1688.5,1111.8 1688.5,1147.7 			"/>
			<rect x="822.2" y="818.2" class="st2" width="2" height="389.9"/>
			<rect x="1096.7" y="771.7" class="st2" width="3" height="434.2"/>
			<rect x="1083.4" y="774" class="st2" width="2" height="431.8"/>
			<polygon class="st2" points="735.6,1205.6 735.6,803.5 402.7,747 403,745 736.7,801.7 737.5,801.8 737.5,802.7 737.5,1205.6 			
				"/>
			<polygon class="st2" points="47.7,1205.8 47.7,922 47.7,921 48.8,921 805.3,991.2 805.1,993.1 49.7,923.1 49.7,1205.8 			"/>
			<polygon class="st2" points="0,1206.7 0,901.8 0,901 0.8,900.8 27,895.5 27.3,895.4 805.4,973.6 805.2,975.6 27.3,897.4 2,902.6 
				2,1206.7 			"/>
		</g>
		<g id="e" class="st1">
			<polygon class="st2" points="999.5,879.5 895.6,893.3 895.6,1205.8 893.6,1205.8 893.6,892.4 893.6,891.6 894.5,891.4 
				999.3,877.5 			"/>
			<polygon class="st2" points="117.5,1005.8 822.7,917.2 823,919.2 117.7,1007.7 			"/>
			<polygon class="st2" points="228.9,1013.2 823.6,946 823.8,947.9 229.1,1015.1 			"/>
			<rect x="600" y="305" transform="matrix(0.2583 -0.9661 0.9661 0.2583 -70.9413 977.3)" class="st2" width="2" height="459.7"/>
			
				<rect x="555.1" y="301.7" transform="matrix(0.239 -0.971 0.971 0.239 -136.8343 978.7952)" class="st2" width="2" height="549.9"/>
			
				<rect x="534.4" y="299.7" transform="matrix(0.2306 -0.9731 0.9731 0.2306 -167.526 979.1553)" class="st2" width="2" height="591.6"/>
			
				<rect x="495.7" y="295.6" transform="matrix(0.2151 -0.9766 0.9766 0.2151 -225.5533 979.663)" class="st2" width="2" height="669.1"/>
			<polygon class="st2" points="823,642 219,791 219,836.2 217,836.2 217,790.2 217,789.4 217.8,789.2 822.6,640.1 			"/>
			<polygon class="st2" points="216,869.6 117.4,858.1 116.5,858 116.5,857.1 116.6,718.4 116.6,717.7 117.3,717.5 431.6,620.9 
				432.1,622.8 118.6,719.2 118.5,856.2 216.2,867.6 			"/>
			
				<rect x="113.7" y="821.5" transform="matrix(0.9766 -0.2149 0.2149 0.9766 -170.3483 78.2398)" class="st2" width="321.8" height="2"/>
			
				<rect x="213.7" y="845.8" transform="matrix(0.9805 -0.1966 0.1966 0.9805 -160.1914 80.2073)" class="st2" width="220.3" height="2"/>
			<polygon class="st2" points="1750.7,1205.8 1750.7,393.1 1538.8,266.4 1538.9,1205.8 1537,1205.8 1536.8,264.7 1536.8,262.9 
				1538.3,263.8 1752.2,391.7 1752.6,392 1752.6,392.6 1752.6,1205.8 			"/>
			<polygon class="st2" points="1173.5,294.7 1437.6,203.9 1438.2,205.8 1174.2,296.5 			"/>
			
				<rect x="1272.5" y="303.5" transform="matrix(0.9556 -0.2945 0.2945 0.9556 -27.1696 428.4912)" class="st2" width="272.9" height="2"/>
			<rect x="993" y="104.3" class="st2" width="2" height="438"/>
			
				<rect x="861.9" y="156.9" transform="matrix(0.3909 -0.9204 0.9204 0.3909 294.4701 947.23)" class="st2" width="2" height="188.5"/>
			
				<rect x="1019.1" y="525.8" transform="matrix(0.9709 -0.2394 0.2394 0.9709 -88.6865 323.2847)" class="st2" width="534.8" height="2"/>
			<polygon class="st2" points="1173.4,296.5 1149.2,285.1 1150,283.3 1174.2,294.7 			"/>
			<polygon class="st2" points="1268.5,291.6 1099.3,207.6 1100.2,205.9 1269.3,289.9 			"/>
			
				<rect x="1226.7" y="137.1" transform="matrix(0.4267 -0.9044 0.9044 0.4267 417.124 1292.0535)" class="st2" width="2" height="359.9"/>
			<polygon class="st2" points="1393.2,516.3 1064.5,384.2 1065.2,382.4 1394,514.5 			"/>
			
				<rect x="1207.3" y="269.7" transform="matrix(0.3613 -0.9324 0.9324 0.3613 334.989 1425.8146)" class="st2" width="2" height="397.4"/>
			<polygon class="st2" points="1046.7,437.8 826.5,504.9 995.9,556.6 995.3,558.5 822.9,505.9 822.9,504 1046.1,435.9 			"/>
			<polygon class="st2" points="1393.2,720.5 866.3,571.3 866.8,569.4 1393.8,718.6 			"/>
			<polygon class="st2" points="1285.3,440.6 949.6,534.1 949,534 776,480.2 775.3,480 775.3,479.3 775.2,371.9 775.2,371.2 
				775.8,371 1116.3,244.5 1117,246.3 777.2,372.6 777.2,478.6 949.3,532.1 1284.7,438.7 			"/>
			<polygon class="st2" points="1215.1,678.8 995.2,722.1 994.8,722.1 822.9,683 822.9,681 1046.2,630 1046.7,631.9 827.5,682 
				995,720.2 1214.7,676.8 			"/>
			<path class="st2" d="M1075.2,1165.4l-230.3,3.8h-1v-292l0.8-0.1l230.3-32.6l1.1-0.2v321.1L1075.2,1165.4L1075.2,1165.4z
				 M845.8,1167.2l228.3-3.7V846.6L845.8,879V1167.2z"/>
			<rect x="390.6" y="479" class="st2" width="2" height="318.1"/>
			<rect x="258.3" y="530" class="st2" width="2" height="296.6"/>
			
				<rect x="165.9" y="676.3" transform="matrix(0.1606 -0.987 0.987 0.1606 -576.9143 774.4703)" class="st2" width="2" height="100.1"/>
			
				<rect x="735.9" y="793.7" transform="matrix(0.9837 -0.18 0.18 0.9837 -130.3171 153.3198)" class="st2" width="87.5" height="2"/>
			<polygon class="st2" points="215.8,733.6 431.4,673.3 431.9,675.2 216.4,735.5 			"/>
			
				<rect x="166.1" y="1085.7" transform="matrix(2.408317e-02 -0.9997 0.9997 2.408317e-02 -971.7452 1274.7637)" class="st2" width="2" height="98.9"/>
			<rect x="215.6" y="734.7" class="st2" width="2" height="133.7"/>
			<rect x="948.1" y="433.5" class="st2" width="2" height="99.6"/>
			<rect x="948.2" y="287.9" class="st2" width="2" height="110"/>
			<rect x="1277.6" y="344.7" class="st2" width="2" height="861.1"/>
			<polygon class="st2" points="736.5,1102.5 823,1098.4 823,1100.4 736.6,1104.4 			"/>
			
				<rect x="1184.9" y="-26.2" transform="matrix(0.4614 -0.8872 0.8872 0.4614 457.2186 1162.1995)" class="st2" width="2" height="461.4"/>
			<path class="st3" d="M815.5,959.9l0.2,2.2l7.8-0.8l-0.2-2.2L815.5,959.9z M797.8,961.8l0.2,2.2l7.8-0.8l-0.2-2.2L797.8,961.8
				L797.8,961.8z M762.4,965.6l0.2,2.2l7.8-0.8l-0.2-2.2L762.4,965.6L762.4,965.6z M727,969.4l0.2,2.2l7.8-0.8l-0.2-2.2L727,969.4z
				 M691.6,973.2l0.2,2.2l7.8-0.8l-0.2-2.2L691.6,973.2z M656.2,977l0.2,2.2l7.8-0.8l-0.2-2.2L656.2,977z M620.8,980.8l0.2,2.2
				l7.8-0.8l-0.2-2.2L620.8,980.8L620.8,980.8z M780.1,963.7l0.2,2.2l7.8-0.8l-0.2-2.2L780.1,963.7L780.1,963.7z M744.7,967.5
				l0.2,2.2l7.8-0.8l-0.2-2.2L744.7,967.5L744.7,967.5z M709.3,971.3l0.2,2.2l7.8-0.8l-0.2-2.2L709.3,971.3L709.3,971.3z
				 M673.9,975.1l0.2,2.2l7.8-0.8l-0.2-2.2L673.9,975.1L673.9,975.1z M638.5,978.9l0.2,2.2l7.8-0.8l-0.2-2.2L638.5,978.9z
				 M603.1,982.7l0.2,2.2l7.8-0.8l-0.2-2.2L603.1,982.7L603.1,982.7z M1600.8,875.7l0.2,2.2l7.8-0.8l-0.2-2.2L1600.8,875.7z
				 M1583.1,877.6l0.2,2.2l7.8-0.8l-0.2-2.2L1583.1,877.6z M1547.7,881.4l0.2,2.2l7.8-0.8l-0.2-2.2L1547.7,881.4z M1512.3,885.2
				l0.2,2.2l7.8-0.8l-0.2-2.2L1512.3,885.2L1512.3,885.2z M1476.9,889l0.2,2.2l7.8-0.8l-0.2-2.2L1476.9,889L1476.9,889z
				 M1441.5,892.8l0.2,2.2l7.8-0.8l-0.2-2.2L1441.5,892.8L1441.5,892.8z M1406.1,896.6l0.2,2.2l7.8-0.8l-0.2-2.2L1406.1,896.6
				L1406.1,896.6z M1370.7,900.4l0.2,2.2l7.8-0.8l-0.2-2.2L1370.7,900.4z M1317.6,906l0.2,2.2l7.8-0.8l-0.2-2.2L1317.6,906
				L1317.6,906z M1246.8,913.6l0.2,2.2l7.8-0.8l-0.2-2.2L1246.8,913.6L1246.8,913.6z M1176,921.2l0.2,2.2l7.8-0.8l-0.2-2.2
				L1176,921.2L1176,921.2z M1105.2,928.8l0.2,2.2l7.8-0.8l-0.2-2.2L1105.2,928.8z M1034.4,936.4l0.2,2.2l7.8-0.8l-0.2-2.2
				L1034.4,936.4z M963.6,944l0.2,2.2l7.8-0.8l-0.2-2.2L963.6,944z M892.8,951.6l0.2,2.2l7.8-0.8l-0.2-2.2L892.8,951.6z
				 M1565.4,879.5l0.2,2.2l7.8-0.8l-0.2-2.2L1565.4,879.5L1565.4,879.5z M1530,883.3l0.2,2.2l7.8-0.8l-0.2-2.2L1530,883.3
				L1530,883.3z M1494.6,887.1l0.2,2.2l7.8-0.8l-0.2-2.2L1494.6,887.1L1494.6,887.1z M1459.2,890.8l0.2,2.2l7.8-0.8l-0.2-2.2
				L1459.2,890.8z M1423.8,894.6l0.2,2.2l7.8-0.8l-0.2-2.2L1423.8,894.6z M1388.4,898.4l0.2,2.2l7.8-0.8l-0.2-2.2L1388.4,898.4
				L1388.4,898.4z M1353,902.2l0.2,2.2l7.8-0.8l-0.2-2.2L1353,902.2z M1282.2,909.8l0.2,2.2l7.8-0.8l-0.2-2.2L1282.2,909.8z
				 M1211.4,917.4l0.2,2.2l7.8-0.8l-0.2-2.2L1211.4,917.4L1211.4,917.4z M1140.6,925l0.2,2.2l7.8-0.8l-0.2-2.2L1140.6,925z
				 M1069.8,932.6l0.2,2.2l7.8-0.8l-0.2-2.2L1069.8,932.6z M999,940.2l0.2,2.2l7.8-0.8l-0.2-2.2L999,940.2L999,940.2z M928.2,947.8
				l0.2,2.2l7.8-0.8l-0.2-2.2L928.2,947.8L928.2,947.8z M857.4,955.4l0.2,2.2l7.8-0.8l-0.2-2.2L857.4,955.4z M1335.3,904.2l0.2,2.2
				l7.8-0.8l-0.2-2.2L1335.3,904.2L1335.3,904.2z M1299.9,907.9l0.2,2.2l7.8-0.8l-0.2-2.2L1299.9,907.9z M1264.5,911.7l0.2,2.2
				l7.8-0.8l-0.2-2.2L1264.5,911.7z M1229.1,915.5l0.2,2.2l7.8-0.8l-0.2-2.2L1229.1,915.5L1229.1,915.5z M1193.7,919.3l0.2,2.2
				l7.8-0.8l-0.2-2.2L1193.7,919.3z M1158.3,923.1l0.2,2.2l7.8-0.8l-0.2-2.2L1158.3,923.1L1158.3,923.1z M1122.9,926.9l0.2,2.2
				l7.8-0.8l-0.2-2.2L1122.9,926.9z M1087.5,930.7l0.2,2.2l7.8-0.8l-0.2-2.2L1087.5,930.7z M1052.1,934.5l0.2,2.2l7.8-0.8l-0.2-2.2
				L1052.1,934.5L1052.1,934.5z M1016.7,938.3l0.2,2.2l7.8-0.8l-0.2-2.2L1016.7,938.3L1016.7,938.3z M981.3,942.1l0.2,2.2l7.8-0.8
				l-0.2-2.2L981.3,942.1z M945.9,945.9l0.2,2.2l7.8-0.8l-0.2-2.2L945.9,945.9z M910.5,949.7l0.2,2.2l7.8-0.8l-0.2-2.2L910.5,949.7
				L910.5,949.7z M875.1,953.5l0.2,2.2l7.8-0.8l-0.2-2.2L875.1,953.5L875.1,953.5z M839.7,957.3l0.2,2.2l7.8-0.8l-0.2-2.2
				L839.7,957.3z M1750.3,859.6l-7.8,0.8l0.2,2.2l7.8-0.8L1750.3,859.6z M1724.8,862.4l0.2,2.2l7.8-0.8l-0.2-2.2L1724.8,862.4z
				 M1707.1,864.3l0.2,2.2l7.8-0.8l-0.2-2.2L1707.1,864.3z M1689.4,866.2l0.2,2.2l7.8-0.8l-0.2-2.2L1689.4,866.2z M1671.7,868.1
				l0.2,2.2l7.8-0.8l-0.2-2.2L1671.7,868.1z M1654,870l0.2,2.2l7.8-0.8l-0.2-2.2L1654,870z M1636.3,871.9l0.2,2.2l7.8-0.8l-0.2-2.2
				L1636.3,871.9z M1618.6,873.8l0.2,2.2l7.8-0.8l-0.2-2.2L1618.6,873.8L1618.6,873.8z"/>
			<path class="st3" d="M1747.7,736.7l-7.8,1.1l0.3,2.2l7.8-1.1L1747.7,736.7z M1722.3,740.4l0.3,2.2l7.8-1.1l-0.3-2.2L1722.3,740.4
				L1722.3,740.4z M1704.7,743l0.3,2.2l7.8-1.1l-0.3-2.2L1704.7,743L1704.7,743z M1687.1,745.6l0.3,2.2l7.8-1.1l-0.3-2.2
				L1687.1,745.6L1687.1,745.6z M1669.5,748.1l0.3,2.2l7.8-1.1l-0.3-2.2L1669.5,748.1z M1651.9,750.7l0.3,2.2l7.8-1.1l-0.3-2.2
				L1651.9,750.7L1651.9,750.7z M1634.2,753.2l0.3,2.2l7.8-1.1l-0.3-2.2L1634.2,753.2z"/>
			<path class="st3" d="M1568,646.2l0.4,2.2l7.8-1.4l-0.4-2.2L1568,646.2L1568,646.2z M1550.5,649.5l0.4,2.2l7.8-1.4l-0.4-2.2
				L1550.5,649.5L1550.5,649.5z M1515.5,655.9l0.4,2.2l7.8-1.4l-0.4-2.2L1515.5,655.9L1515.5,655.9z M1480.5,662.4l0.4,2.2l7.8-1.4
				l-0.4-2.2L1480.5,662.4L1480.5,662.4z M1445.5,668.8l0.4,2.2l7.8-1.4l-0.4-2.2L1445.5,668.8L1445.5,668.8z M1410.5,675.2l0.4,2.2
				l7.8-1.4l-0.4-2.2L1410.5,675.2L1410.5,675.2z M1375.5,681.7l0.4,2.2l7.8-1.4l-0.4-2.2L1375.5,681.7L1375.5,681.7z M1340.5,688.1
				l0.4,2.2l7.8-1.4l-0.4-2.2L1340.5,688.1L1340.5,688.1z M1288,697.8l0.4,2.2l7.8-1.4l-0.4-2.2L1288,697.8z M1218,710.7l0.4,2.2
				l7.8-1.4l-0.4-2.2L1218,710.7L1218,710.7z M1148,723.5l0.4,2.2l7.8-1.4l-0.4-2.2L1148,723.5L1148,723.5z M1533.1,652.7l0.4,2.2
				l7.8-1.4l-0.4-2.2L1533.1,652.7L1533.1,652.7z M1498.1,659.1l0.4,2.2l7.8-1.4l-0.4-2.2L1498.1,659.1L1498.1,659.1z M1463.1,665.6
				l0.4,2.2l7.8-1.4l-0.4-2.2L1463.1,665.6z M1428.1,672l0.4,2.2l7.8-1.4l-0.4-2.2L1428.1,672L1428.1,672z M1393.1,678.5l0.4,2.2
				l7.8-1.4l-0.4-2.2L1393.1,678.5z M1358.1,684.9l0.4,2.2l7.8-1.4l-0.4-2.2L1358.1,684.9L1358.1,684.9z M1323.1,691.3l0.4,2.2
				l7.8-1.4l-0.4-2.2L1323.1,691.3z M1253.1,704.2l0.4,2.2l7.8-1.4l-0.4-2.2L1253.1,704.2z M1183.1,717.1l0.4,2.2l7.8-1.4l-0.4-2.2
				L1183.1,717.1z M1113.1,730l0.4,2.2l7.8-1.4l-0.4-2.2L1113.1,730L1113.1,730z M1305.7,694.6l0.4,2.2l7.8-1.4l-0.4-2.2
				L1305.7,694.6z M1270.7,701l0.4,2.2l7.8-1.4l-0.4-2.2L1270.7,701L1270.7,701z M1235.7,707.4l0.4,2.2l7.8-1.4l-0.9-2.2
				L1235.7,707.4z M1200.7,713.9l0.4,2.2l7.8-1.4l-0.4-2.2L1200.7,713.9L1200.7,713.9z M1165.7,720.3l0.4,2.2l7.8-1.4l-0.4-2.2
				L1165.7,720.3L1165.7,720.3z M1130.7,726.8l0.4,2.2l7.8-1.4l-0.4-2.2L1130.7,726.8L1130.7,726.8z M1750.7,612.6l-7.7,1.4l0.4,2.2
				l7.8-1.4L1750.7,612.6z M1725.5,617.2l0.4,2.2l7.8-1.4l-0.4-2.2L1725.5,617.2L1725.5,617.2z M1708,620.5l0.4,2.2l7.8-1.4
				l-0.4-2.2L1708,620.5z M1690.5,623.7l0.4,2.2l7.8-1.4l-0.4-2.2L1690.5,623.7L1690.5,623.7z M1673,626.9l0.4,2.2l7.8-1.4l-0.4-2.2
				L1673,626.9z M1655.5,630.1l0.4,2.2l7.8-1.4l-0.4-2.2L1655.5,630.1z M1638,633.3l0.4,2.2l7.8-1.4l-0.4-2.2L1638,633.3z
				 M1620.5,636.6l0.4,2.2l7.8-1.4l-0.4-2.2L1620.5,636.6L1620.5,636.6z M1603,639.8l0.4,2.2l7.8-1.4l-0.4-2.2L1603,639.8
				L1603,639.8z M1585.4,643l0.4,2.2l7.8-1.4l-0.4-2.2L1585.4,643z"/>
			<polygon class="st2" points="639,1206.2 640.9,1206.2 640.9,871.3 639,871.6 			"/>
			<polygon class="st2" points="641,442.2 641,441.5 640.3,441.3 607.7,431.2 607.2,433.1 639,443 639,849.3 640.9,849 			"/>
		</g>
		<g id="g" class="st1">
			<rect x="1212.8" y="894.8" class="st2" width="1.6" height="310.8"/>
			<rect x="1403.3" y="925.7" class="st2" width="1.6" height="279.9"/>
			<rect x="1654.8" y="990.2" class="st2" width="1.6" height="215.4"/>
			<rect x="1052.6" y="834.7" class="st2" width="1.6" height="370.9"/>
			<rect x="833" y="867" class="st2" width="1.6" height="338.6"/>
			<rect x="1107" y="877.3" class="st2" width="1.6" height="328.3"/>
			<rect x="615.9" y="899.4" class="st2" width="1.6" height="306.3"/>
			<rect x="420.1" y="992.5" class="st2" width="1.6" height="213.1"/>
			<rect x="327" y="921.3" class="st2" width="1.6" height="288.2"/>
			<rect x="615.9" y="538.8" class="st2" width="1.6" height="314.2"/>
			<polygon class="st2" points="1230.5,1205.8 1230.5,975.3 1230.5,974.1 1231.6,974.3 1264.2,978.3 1263.9,980.2 1232.5,976.4 
				1232.5,1205.8 			"/>
			<polygon class="st2" points="159.2,1037 118.6,1034.7 118.6,1205.8 116.6,1205.8 116.6,1033.6 116.6,1032.6 117.6,1032.6 
				159.3,1035 			"/>
			<polygon class="st2" points="228.9,1015.2 117.5,1007.7 117.7,1005.8 229.1,1013.2 			"/>
			
				<rect x="172.3" y="847.9" transform="matrix(0.1023 -0.9948 0.9948 0.1023 -743.512 983.8098)" class="st2" width="2" height="111.9"/>
			<rect x="1142.8" y="883.4" class="st2" width="2" height="322.6"/>
			<path class="st2" d="M846.1,662.8v117.6l134.1-24.6V631.3L846.1,662.8z M844.1,781.6V661.2l0.8-0.2l136.1-32l1.2-0.3v128.7
				l-0.8,0.2l-136.1,25l-1.2,0.2L844.1,781.6L844.1,781.6z"/>
			<path class="st2" d="M1047.3,438.3v191.9l166.5,46.4V500.3L1047.3,438.3L1047.3,438.3z M1045.3,631V435.5l1.3,0.5l168.5,62.8
				l0.6,0.2v180.2l-1.2-0.3L1046,631.9l-0.7-0.2L1045.3,631L1045.3,631z"/>
			
				<rect x="1185" y="393.7" transform="matrix(0.3011 -0.9536 0.9536 0.3011 248.2713 1556.3684)" class="st2" width="2" height="430.3"/>
			<path class="st2" d="M1117.4,246.6v121.9l166.5,69.9V326.8L1117.4,246.6L1117.4,246.6L1117.4,246.6z M1115.4,369.1V243.4l1.4,0.7
				l168.5,81.2l0.6,0.3v115.8l-1.4-0.6L1116,370l-0.6-0.2L1115.4,369.1L1115.4,369.1z"/>
			<rect x="1448" y="279.6" class="st2" width="2" height="115"/>
			<polygon class="st2" points="1390.2,409.7 1462.4,389.6 1462.9,391.5 1390.8,411.6 			"/>
			<polygon class="st2" points="1697.7,507.5 1630.6,522.3 1629.9,522.3 1545.8,483.4 1546.7,481.6 1630.5,520.3 1697.2,505.6 			
				"/>
			<polygon class="st2" points="1462.6,276.5 1391.4,299.1 1391.1,409.9 1546.6,481.6 1545.8,483.4 1389.7,411.4 1389.1,411.2 
				1389.1,410.5 1389.4,298.4 1389.4,297.7 1390.1,297.4 1462,274.6 			"/>
			
				<rect x="1566.2" y="320.6" transform="matrix(0.4388 -0.8986 0.8986 0.4388 473.3533 1661.7795)" class="st2" width="2" height="262.6"/>
			<rect x="1525.7" y="267.9" class="st2" width="2" height="937.9"/>
			
				<rect x="937.6" y="222.7" transform="matrix(0.9346 -0.3556 0.3556 0.9346 -6.5101 411.8905)" class="st2" width="359.2" height="2"/>
			<rect x="1083.4" y="7.7" class="st2" width="2" height="766.3"/>
			<rect x="998.4" y="842.3" class="st2" width="2" height="363.5"/>
			<rect x="713.8" y="859.5" class="st2" width="2" height="346.3"/>
			
				<rect x="940" y="340.4" transform="matrix(0.9484 -0.3171 0.3171 0.9484 -50.5923 371.9308)" class="st2" width="354.4" height="2"/>
			<path class="st2" d="M1117.4,65v134.9l166.5,83.9V160.4L1117.4,65z M1115.4,200.5V61.6l1.5,0.8l168.5,96.6l0.5,0.3V287l-1.4-0.7
				L1116,201.4l-0.5-0.3L1115.4,200.5L1115.4,200.5z"/>
			<polygon class="st2" points="1060.8,242.6 865.6,150.8 866.5,149 1061.7,240.8 			"/>
			<polygon class="st2" points="776,478.3 1116.2,368.2 1116.8,370 776.6,480.2 			"/>
			
				<rect x="861.6" y="310.9" transform="matrix(0.3363 -0.9418 0.9418 0.3363 193.2108 1079.6177)" class="st2" width="2" height="183.6"/>
			<polygon class="st2" points="775.9,331.9 1116.1,199.5 1116.8,201.3 776.6,333.7 			"/>
			<polygon class="st2" points="948.9,398.5 775.8,333.8 775.1,333.5 775.1,332.8 775.2,214.3 775.2,213.6 775.8,213.4 1116.3,62.9 
				1117.1,64.7 777.2,214.9 777.1,332.1 949.5,396.6 			"/>
			<polygon class="st2" points="948.8,432.7 1284.6,325.4 1285.2,327.3 949.4,434.6 			"/>
			<path class="st2" d="M1461.5,390.6V273.9l1.5,0.8l234.8,132.5l0.5,0.3v100.8l-1.4-0.7l-234.8-116.1l-0.6-0.3L1461.5,390.6
				L1461.5,390.6L1461.5,390.6z M1463.5,277.3V390l232.8,115.1v-96.5L1463.5,277.3z"/>
			<rect x="26.3" y="896.4" class="st2" width="2" height="310.3"/>
			<polygon class="st2" points="855.5,147.1 822.8,131.7 823.6,130 856.4,145.4 			"/>
			<polygon class="st2" points="217.9,791.2 27,763.7 27.2,761.8 218.2,789.2 			"/>
			<path class="st2" d="M341.5,1153.6v-86.7l-122.7,9.5v80.7L341.5,1153.6z M343.5,1065.8v89.7h-1l-124.7,3.5h-1v-84.6l0.9-0.1
				l124.7-9.7l1.1-0.1L343.5,1065.8L343.5,1065.8z"/>
			<rect x="533" y="48.1" class="st2" width="2" height="182.2"/>
			<polygon class="st2" points="431.4,279.3 533.6,229.5 534,229.3 534.4,229.5 607.8,257.3 607.1,259.1 534.1,231.5 432.3,281.1 
							"/>
			<path class="st2" d="M534.1,49.2l-101.3,58.6v171.7l71.5,24.7l102.1-46.6V81.5L534.1,49.2z M431.3,106.4l102.2-59.1L534,47
				l0.5,0.2L607.8,80l0.6,0.3v178.6l-0.6,0.3l-103.1,47h-0.7l-72.6-25.1l-0.7-0.2V106.7L431.3,106.4L431.3,106.4z"/>
			
				<rect x="520.1" y="569.4" transform="matrix(0.967 -0.2549 0.2549 0.967 -114.2633 259.2286)" class="st2" width="845.6" height="2"/>
			
				<rect x="20.5" y="757.5" transform="matrix(0.967 -0.2549 0.2549 0.967 -185.7736 83.6054)" class="st2" width="418.4" height="2"/>
			<polygon class="st2" points="432.1,643.7 28.2,763.4 28.2,810.9 218.2,835.2 218,837.2 27.1,812.8 26.2,812.7 26.2,811.8 
				26.2,762.7 26.2,761.9 27,761.7 431.6,641.8 			"/>
			<polygon class="st2" points="1351.7,371 534.3,613.4 533.8,611.5 1351.2,369.1 			"/>
			<rect x="173.4" y="1010.5" class="st2" width="2" height="195.3"/>
			<rect x="288.2" y="1156.1" class="st2" width="2" height="49.7"/>
			<polygon class="st2" points="84,1205.8 84.1,1165.8 84.1,1164.8 85,1164.8 289.2,1159.6 289.3,1161.5 86,1166.8 86,1205.8 			"/>
			<rect x="391" y="1153.1" class="st2" width="2" height="52.7"/>
			<rect x="311.3" y="1155.6" class="st2" width="2" height="50.2"/>
			<rect x="405.1" y="1152.8" class="st2" width="2" height="53.1"/>
			<polygon class="st2" points="430.6,1205.8 430.6,378.5 430.6,377.6 431.3,377.3 533.5,332.8 534.4,332.7 607.9,357.6 
				608.7,357.9 608.7,358.8 608.7,1205.8 606.2,1205.8 606.2,359.7 534.1,335.3 433.1,379.3 433.1,1205.8 			"/>
			<rect x="532.7" y="334" class="st2" width="2.6" height="871.9"/>
		</g>
		<g id="i" class="st1">
			<polygon class="st2" points="664.8,1205.8 664.8,1023.2 569.6,1031.4 569.6,1205.8 567.6,1205.8 567.6,1030.5 567.6,1029.6 
				568.5,1029.5 665.7,1021.1 666.7,1021 666.7,1022.1 666.8,1205.8 			"/>
			<path class="st2" d="M1024.1,257v138.6l39.9-13V241.8L1024.1,257z M1022.1,397V255.6l0.6-0.2l41.9-16l1.3-0.5v145.2l-0.7,0.2
				l-41.9,13.6l-1.3,0.4L1022.1,397L1022.1,397z"/>
			<path class="st2" d="M867.5,150.9v417l112.2-30.6V100.2L867.5,150.9z M864.5,569.9V149l0.9-0.4l115.2-52.1l2.1-0.9v444l-1.1,0.3
				l-115.2,31.4l-1.9,0.5L864.5,569.9L864.5,569.9z"/>
			<path class="st2" d="M290.6,511.6V813l87.1-19.4V477.1L290.6,511.6L290.6,511.6L290.6,511.6z M288.2,814.5V510.8V510l0.7-0.3
				l89.5-35.4l1.6-0.6v321.8l-0.9,0.2l-89.5,19.9l-1.4,0.3L288.2,814.5L288.2,814.5z"/>
			<path class="st2" d="M170.9,558.9v280.7l75.6-16.8V529L170.9,558.9L170.9,558.9L170.9,558.9z M168.5,841.1V557.3l0.8-0.3l78-30.9
				l1.6-0.6v1.7v296.5v1L248,825l-78,17.3l-1.4,0.3L168.5,841.1L168.5,841.1z"/>
			<polygon class="st2" points="1263.2,102.1 1098.1,3.3 824.6,131.8 824.7,818.2 821.7,818.2 821.7,130.8 821.7,129.9 822.5,129.5 
				1097.6,0.3 1098.3,0 1099,0.4 1264.8,99.6 			"/>
			<polygon class="st2" points="1436.4,1205.8 1436.3,205.6 1360.3,160 1361.7,157.7 1438.4,203.6 1439.1,204 1439.1,204.8 
				1439.2,1205.8 			"/>
			<rect x="1096.7" y="1.7" class="st2" width="3" height="770"/>
			<rect x="268.9" y="1035.2" class="st2" width="2.4" height="84.8"/>
			<path class="st2" d="M316.4,1122.6l-66.7,3.2h-0.1l-45.6-1.3h-1.1v-1.1v-81.6v-1.1l1.1-0.1l66.1-6.5h0.2l46.2,3.3l1.1,0.1v85.1
				L316.4,1122.6L316.4,1122.6L316.4,1122.6z M249.6,1123.4l65.5-3.1v-80.7l-45-3.2l-64.9,6.4v79.3L249.6,1123.4L249.6,1123.4z"/>
			<polygon class="st2" points="204,1122.1 270,1118.8 270.1,1118.8 316.3,1120.2 316.3,1122.6 270.1,1121.2 204.1,1124.4 			"/>
			<polygon class="st2" points="703.1,1143.8 805.3,1140.9 805.4,1140.9 878.8,1143 878.8,1145.7 805.4,1143.7 703.2,1146.6 			"/>
			<path class="st3" d="M360.6,803.6v5.8h2.2v-5.8H360.6z M360.6,849.1h2.2v-5.8h-2.2V849.1z M360.6,902h2.2v-5.8h-2.2V902z
				 M360.6,954.8h2.2V949h-2.2V954.8z M360.6,1007.6h2.2v-5.8h-2.2V1007.6z M360.6,1060.5h2.2v-5.8h-2.2V1060.5z M360.6,1113.3h2.2
				v-5.8h-2.2V1113.3z M360.6,1166.2h2.2v-5.8h-2.2V1166.2z M360.6,822.7h2.2v-5.8h-2.2V822.7z M360.6,875.5h2.2v-5.8h-2.2V875.5z
				 M360.6,928.4h2.2v-5.8h-2.2V928.4z M360.6,981.2h2.2v-5.8h-2.2V981.2z M360.6,1034.1h2.2v-5.8h-2.2V1034.1z M360.6,1086.9h2.2
				v-5.8h-2.2V1086.9z M360.6,1139.8h2.2v-5.8h-2.2V1139.8z M360.6,1192.6h2.2v-5.8h-2.2V1192.6z M360.6,835.9h2.2v-5.8h-2.2V835.9z
				 M360.6,862.3h2.2v-5.8h-2.2V862.3z M360.6,888.7h2.2v-5.8h-2.2V888.7z M360.6,915.2h2.2v-5.8h-2.2V915.2z M360.6,941.6h2.2v-5.8
				h-2.2V941.6z M360.6,968h2.2v-5.8h-2.2V968z M360.6,994.4h2.2v-5.8h-2.2V994.4z M360.6,1020.8h2.2v-5.8h-2.2V1020.8z
				 M360.6,1047.3h2.2v-5.8h-2.2V1047.3z M360.6,1073.7h2.2v-5.8h-2.2V1073.7z M360.6,1100.1h2.2v-5.8h-2.2V1100.1z M360.6,1126.5
				h2.2v-5.8h-2.2V1126.5z M360.6,1153h2.2v-5.8h-2.2V1153z M360.6,1179.4h2.2v-5.8h-2.2V1179.4z M360.6,1205.8h2.2v-5.8h-2.2
				V1205.8z"/>
			<path class="st3" d="M1026.1,440.4h2.2v-7.9h-2.2V440.4z M1026.1,458.1h2.2v-7.9h-2.2V458.1z M1026.1,493.8h2.2v-7.9h-2.2V493.8z
				 M1026.1,529.3h2.2v-7.9h-2.2V529.3z M1026.1,565h2.2v-7.9h-2.2V565z M1026.1,600.6h2.2v-7.9h-2.2V600.6z M1026.1,636.2h2.2v-7.9
				h-2.2V636.2z M1026.1,671.8h2.2v-7.9h-2.2V671.8z M1026.1,725.2h2.2v-7.9h-2.2V725.2z M1026.1,796.4h2.2v-7.9h-2.2V796.4z
				 M1026.1,867.6h2.2v-7.9h-2.2V867.6z M1026.1,938.8h2.2v-7.9h-2.2V938.8z M1026.1,1010h2.2v-7.9h-2.2V1010z M1026.1,1081.2h2.2
				v-7.9h-2.2V1081.2z M1026.1,1152.4h2.2v-7.9h-2.2V1152.4z M1026.1,476h2.2v-7.9h-2.2V476z M1026.1,511.6h2.2v-7.9h-2.2V511.6z
				 M1026.1,547.2h2.2v-7.9h-2.2V547.2z M1026.1,582.8h2.2v-7.9h-2.2V582.8z M1026.1,618.4h2.2v-7.9h-2.2V618.4z M1026.1,654h2.2
				v-7.9h-2.2V654z M1026.1,689.6h2.2v-7.9h-2.2V689.6z M1026.1,760.8h2.2v-7.9h-2.2V760.8z M1026.1,832h2.2v-7.9h-2.2V832z
				 M1026.1,903.2h2.2v-7.9h-2.2V903.2z M1026.1,974.4h2.2v-7.9h-2.2V974.4z M1026.1,1045.6h2.2v-7.9h-2.2V1045.6z M1026.1,1116.8
				h2.2v-7.8h-2.2V1116.8z M1026.1,1188h2.2v-7.9h-2.2V1188z M1026.1,707.4h2.2v-7.9h-2.2V707.4z M1026.1,743h2.2v-7.9h-2.2V743z
				 M1026.1,778.6h2.2v-7.9h-2.2V778.6z M1026.1,814.2h2.2v-7.9h-2.2V814.2z M1026.1,849.8h2.2v-7.9h-2.2V849.8z M1026.1,885.4h2.2
				v-7.9h-2.2V885.4z M1026.1,921h2.2v-7.9h-2.2V921z M1026.1,956.6h2.2v-7.9h-2.2V956.6z M1026.1,992.2h2.2v-7.9h-2.2V992.2z
				 M1026.1,1027.8h2.2v-7.9h-2.2V1027.8z M1026.1,1063.4h2.2v-7.9h-2.2V1063.4z M1026.1,1099h2.2v-7.9h-2.2V1099z M1026.1,1134.6
				h2.2v-7.9h-2.2V1134.6z M1026.1,1170.2h2.2v-7.9h-2.2V1170.2z M1026.1,1205.8h2.2v-7.8h-2.2V1205.8z M1026.1,236.6v7.9h2.2v-7.9
				H1026.1z M1026.1,262.3h2.2v-7.9h-2.2V262.3z M1026.1,280.1h2.2v-7.9h-2.2V280.1z M1026.1,297.9h2.2V290h-2.2V297.9z
				 M1026.1,315.7h2.2v-7.9h-2.2V315.7z M1026.1,333.5h2.2v-7.9h-2.2V333.5z M1026.1,351.3h2.2v-7.9h-2.2V351.3z M1026.1,369.1h2.2
				v-7.9h-2.2V369.1z M1026.1,386.9h2.2V379h-2.2V386.9z M1026.1,404.7h2.2v-7.9h-2.2V404.7z M1026.1,422.5h2.2v-7.9h-2.2V422.5z"/>
			<path class="st3" d="M1573.3,287.1l6.8,4l1.2-1.9l-6.8-4L1573.3,287.1z M1542.7,268.9l6.8,4l1.2-1.9l-6.8-4L1542.7,268.9z
				 M1603.9,305.3l6.8,4l1.1-1.9l-6.8-4L1603.9,305.3L1603.9,305.3z M1558,278l6.8,4l1.2-1.9l-6.8-4L1558,278z M1588.6,296.2l6.8,4
				l1.2-1.9l-6.8-4L1588.6,296.2z M1620.3,312.6l-1.1,1.9l6.8,4l1.2-1.9L1620.3,312.6L1620.3,312.6z"/>
			<path class="st3" d="M1300,123.7l6.8,4l1.2-1.9l-6.8-4L1300,123.7z M1269.4,105.4l6.8,4l1.2-1.9l-6.8-4L1269.4,105.4z
				 M1330.6,141.9l6.8,4l1.2-1.9l-6.8-4L1330.6,141.9L1330.6,141.9z M1284.7,114.6l6.8,4l1.2-1.9l-6.8-4L1284.7,114.6L1284.7,114.6z
				 M1315.3,132.8l6.8,4l1.2-1.9l-6.8-4L1315.3,132.8L1315.3,132.8z M1347,149.1l-1.2,1.9l6.8,4l1.2-1.9L1347,149.1z"/>
			<path class="st3" d="M1082.5,41.8l0.9,2l7.2-3.3l-0.9-2L1082.5,41.8z M1017.7,71.3l0.9,2l7.2-3.3l-0.9-2L1017.7,71.3z
				 M952.9,100.8l0.9,2l7.1-3.2l-0.9-2L952.9,100.8z M888.2,130.4l0.9,2l7.2-3.3l-0.9-2L888.2,130.4z M1122.1,23.7l-7.2,3.3l0.9,2
				l7.2-3.3L1122.1,23.7z M1050.1,56.5l0.9,2l7.2-3.3l-0.9-2L1050.1,56.5z M985.3,86.1l0.9,2l7.2-3.3l-0.9-2L985.3,86.1z
				 M920.5,115.6l0.9,2l7.2-3.3l-0.9-2L920.5,115.6z M855.8,145.1l0.9,2l7.2-3.3l-0.9-2L855.8,145.1z M1098.8,34.3l0.9,2l7.2-3.3
				l-0.9-2L1098.8,34.3z M1066.4,49.1l0.9,2l7.2-3.3l-0.9-2L1066.4,49.1z M1034,63.9l0.9,2l7.2-3.3l-0.9-2L1034,63.9z M1001.6,78.7
				l0.9,2l7.2-3.3l-0.9-2L1001.6,78.7z M969.1,93.4l0.9,2l7.2-3.3l-0.9-2L969.1,93.4z M936.7,108.2l0.9,2l7.2-3.3l-0.9-2
				L936.7,108.2z M904.3,123l0.9,2l7.2-3.3l-0.9-2L904.3,123L904.3,123z M872,137.7l0.9,2l7.2-3.3l-0.9-2L872,137.7z"/>
		</g>
	</g>
</g>
</svg>
