<svg xmlns="http://www.w3.org/2000/svg" viewBox="0 0 2353.6 2249.01"><defs><style>.cls-1{fill:#fff;fill-rule:evenodd;}</style></defs><g id="Layer_2" data-name="Layer 2"><g id="Layer_1-2" data-name="Layer 1"><path class="cls-1" d="M270.13,1838H178.06v36.45h84.56v30.78H178.06V1950h96.16v30.8H142.55V1807.28H270.13Zm116.43,95.63L404,1950a42,42,0,0,1-19.57,4.63c-19.59,0-47.15-12.06-47.15-60.62s27.56-60.62,47.15-60.62,47.1,12.06,47.1,60.62c0,16.27-3.13,28.28-8,37.27l-18.36-17.15Zm81.93,40.08-18.89-17.78c10.63-13.56,18.15-33.36,18.15-61.88,0-81.41-60.41-91.3-83.37-91.3s-83.33,9.89-83.33,91.3,60.39,91.32,83.33,91.32c10.12,0,28-1.9,44.45-11.65l20.57,19.64,19.09-19.65Zm169.86-53.56c0,45.61-27.59,65.2-71.32,65.2-15.93,0-39.61-3.85-55.07-21-9.42-10.56-13-24.7-13.52-42v-115h37v112.56c0,24.24,14,34.81,30.9,34.81,24.91,0,35-12.06,35-33.09V1807.28h37v112.85Zm97.07-73.69H736l21.46,68.62H713.14Zm-31.95,98.49h64l11.13,35.88H818L757,1807.28H715.13l-61.86,173.53h38.17l12-35.88Zm179.08,4.46H968.8v31.4H846.26V1807.28h36.29Zm223.68-46.47v77.87H1070V1807.28h36.19V1873h67.68v-65.71h36.2v173.51h-36.2v-77.87Zm173-8.91c0-48.56,27.59-60.62,47.1-60.62s47.17,12.06,47.17,60.62-27.56,60.62-47.17,60.62S1279.18,1942.57,1279.18,1894Zm-36.2,0c0,81.47,60.44,91.32,83.3,91.32,23,0,83.42-9.85,83.42-91.32s-60.36-91.29-83.42-91.29C1303.44,1802.72,1243,1812.6,1243,1894Zm339.73,26.12c0,45.61-27.58,65.2-71.33,65.2-16,0-39.57-3.85-55.1-21-9.4-10.56-13-24.7-13.47-42v-115h36.91v112.56c0,24.24,14.06,34.81,31,34.81,24.88,0,35-12.06,35-33.09V1807.28h37v112.85Zm66.32,7.22c.32,9.65,5.19,28,36.81,28,17.12,0,36.25-4.1,36.25-22.52,0-13.47-13-17.14-31.39-21.48l-18.63-4.35c-28.11-6.52-55.14-12.71-55.14-50.9,0-19.35,10.46-53.42,66.73-53.42,53.2,0,67.43,34.76,67.69,56h-34.84c-.93-7.68-3.85-26.1-35.51-26.1-13.74,0-30.17,5.08-30.17,20.78,0,13.61,11.12,16.4,18.29,18.09l42.33,10.39c23.68,5.83,45.4,15.5,45.4,46.64,0,52.26-53.13,56.8-68.37,56.8-63.25,0-74.12-36.5-74.12-58H1649Zm173.75,53.44h-36.13V1807.28h36.13v173.51Zm144.8-173.51h33.78v173.51h-36.19L1894.42,1857h-.61v123.77H1860V1807.28h38.17L1967,1928.11h.61V1807.28Zm155.08,80h72.42v93.52H2171l-3.62-21.73c-9.17,10.53-22.46,26.26-54.13,26.26-41.78,0-79.68-30-79.68-90.81,0-47.32,26.34-92.06,84.73-91.8,53.24,0,74.28,34.5,76.1,58.52h-36.2c0-6.79-12.36-28.58-37.92-28.58-25.92,0-49.81,17.86-49.81,62.3,0,47.39,25.86,59.68,50.49,59.68,8,0,34.63-3.08,42.05-38.17h-40.32v-29.19ZM171.08,2157.59c0-48.56,27.54-60.68,47.08-60.68s47.1,12.12,47.1,60.68-27.52,60.69-47.1,60.69-47.08-12.16-47.08-60.69Zm-36.23,0c0,81.38,60.38,91.42,83.33,91.42s83.34-10,83.34-91.42-60.4-91.3-83.34-91.3S134.85,2076.2,134.85,2157.59Zm266-5.83v-51h28.75c22.45,0,31.89,7.07,31.89,24,0,7.73,0,27-27.08,27Zm0,30h41.53c46.65,0,55.31-39.67,55.31-55.35,0-34.05-20.24-55.58-53.86-55.58H364.59v173.53h36.23v-62.6Zm195.19-30v-51h28.7c22.48,0,31.91,7.07,31.91,24,0,7.73,0,27-27,27Zm0,30h41.56c46.61,0,55.34-39.67,55.34-55.35,0-34.05-20.27-55.58-53.86-55.58H559.76v173.53H596v-62.6Zm187.52-24.18c0-48.56,27.47-60.68,47.12-60.68,19.48,0,47.08,12.12,47.08,60.68s-27.59,60.69-47.08,60.69C811,2218.28,783.53,2206.12,783.53,2157.59Zm-36.25,0c0,81.38,60.37,91.42,83.37,91.42s83.28-10,83.28-91.42-60.39-91.3-83.28-91.3S747.28,2076.2,747.28,2157.59Zm265.3-10.39v-46.46h45.12c21.27,0,25.34,13.6,25.34,22.77,0,17.18-9.14,23.69-28,23.69ZM977,2244.38h35.62v-67.91H1050c26.85,0,28.33,9.14,28.33,32.83,0,17.83,1.36,26.77,3.79,35.08h40.14v-4.68c-7.73-2.87-7.73-9.17-7.73-34.45,0-32.48-7.73-37.74-22-44.05,17.14-5.74,26.77-22.21,26.77-41.27,0-15-8.41-49.06-54.57-49.06H977v173.51Zm277.35,0h-36.23V2101.56h-52.4v-30.7h141.09v30.7h-52.46Zm246.94-60.73c0,45.66-27.53,65.36-71.31,65.36-15.86,0-39.54-4-55-21.15-9.43-10.59-13.05-24.62-13.48-42v-115h36.92v112.55c0,24.16,14,34.87,30.93,34.87,24.87,0,35-12.16,35-33.16V2070.84h37v112.81Zm175.36-112.79h33.89v173.52h-36.31l-70.8-123.77H1603v123.77h-33.89V2070.86h38.17l68.91,120.77h.42V2070.86Zm136.14,173.52h-36.36V2070.86h36.36v173.52Zm141.47,0H1918V2101.56h-52.33v-30.7h141v30.7h-52.46Zm189.46,0h-36.3v-65.51l-59.86-108h42.74l36,75.4,34.4-75.4h41l-58,108.44v65.08ZM1168.07,0,0,575.3V845.54H130.74v810.63H2196.61V845.54h157V575.3Zm775.79,1412H383.53V671.19l784.54-401,775.8,401V1412Z"/><path class="cls-1" d="M1525.39,932.63H802V671.19h723.42Zm0,375H802V1046h723.42v261.61Z"/></g></g></svg>