<svg width="143" height="30" viewBox="0 0 143 30" fill="none" xmlns="http://www.w3.org/2000/svg">
<path d="M134.532 20.1724H132.908V10.4453H134.644C138.118 10.4453 139.549 12.0562 139.549 15.3103C139.549 18.2217 137.979 20.1754 134.529 20.1754M134.761 7.35961H129.621V23.264H134.526C138.749 23.264 142.927 20.9054 142.927 15.3103C142.927 9.71527 139.452 7.35961 134.758 7.35961" fill="#F0F0EE"/>
<path d="M17.4866 16.1616H27.6592V26.734H17.4866V16.1616ZM3.38081 3.27192H27.6592V12.8897H14.1149V26.734H3.38081V3.27192ZM0 30H31.04V0H0V30Z" fill="#F0F0EE"/>
<path d="M57.1478 23.264V7.35961H68.5641V10.4719H60.438V13.2236H65.1531V16.3094H60.438V20.1458H68.9082V23.264H57.1478Z" fill="#F0F0EE"/>
<path d="M71.5858 23.264V7.35961H74.873V20.1251H83.1077V23.264H71.5858Z" fill="#F0F0EE"/>
<path d="M91.3783 16.6966L92.4348 13.8089C92.7669 12.8778 93.0898 11.9261 93.2468 11.332C93.4128 11.9261 93.7419 12.8778 94.0769 13.8089L95.1364 16.6966H91.3783ZM94.9221 7.35961H91.7285L85.4377 23.264H88.9574L90.2494 19.7172H96.2563L97.5543 23.264H101.162L94.9221 7.35961Z" fill="#F0F0EE"/>
<path d="M108.12 10.4985V23.264H104.832V10.4985H100.111V7.35961H112.832V10.4985H108.12Z" fill="#F0F0EE"/>
<path d="M115.18 23.264V7.35961H126.599V10.4719H118.47V13.2236H123.194V16.3094H118.47V20.1458H126.943V23.264H115.18Z" fill="#F0F0EE"/>
<path d="M48.7922 14.533H44.4907V10.4453H48.7922C50.2411 10.4453 51.1406 11.0394 51.1406 12.47C51.1406 13.9005 50.3105 14.533 48.7922 14.533ZM54.5184 12.399C54.5184 9.01775 51.9557 7.35667 48.8556 7.35667H41.2095V23.2611H44.4907V17.5301H47.8021L50.7392 23.2611H54.5214L51.3731 17.0749C53.4619 16.2857 54.5214 14.7813 54.5214 12.399" fill="#F0F0EE"/>
</svg>
